<svg aria-hidden="true" style="position: absolute; width: 0; height: 0; overflow: hidden;" version="1.1" xmlns="http://www.w3.org/2000/svg" xmlns:xlink="http://www.w3.org/1999/xlink">
<defs>
<symbol id="icon-messenger" viewBox="0 0 32 32">
<path d="M0 15.52c0-8.92 6.987-15.52 16-15.52s16 6.6 16 15.52-6.987 15.52-16 15.52c-1.613 0-3.173-0.213-4.627-0.613-0.1-0.028-0.214-0.044-0.333-0.044-0.188 0-0.367 0.041-0.529 0.114l0.008-0.003-3.187 1.4c-0.153 0.070-0.332 0.111-0.521 0.111-0.694 0-1.259-0.553-1.279-1.242l-0-0.002-0.093-2.853c-0.016-0.361-0.177-0.681-0.426-0.906l-0.001-0.001c-3.085-2.791-5.015-6.808-5.015-11.277 0-0.071 0.001-0.143 0.001-0.214l-0 0.011zM11.093 12.6l-4.693 7.467c-0.467 0.707 0.427 1.52 1.093 1l5.053-3.827c0.347-0.267 0.8-0.267 1.16 0l3.733 2.8c1.12 0.84 2.72 0.533 3.467-0.64l4.693-7.467c0.467-0.707-0.427-1.507-1.093-1l-5.053 3.827c-0.333 0.267-0.8 0.267-1.147 0l-3.733-2.8c-0.397-0.303-0.901-0.485-1.447-0.485-0.853 0-1.602 0.445-2.028 1.115l-0.006 0.010z"></path>
</symbol>
<symbol id="icon-check" viewBox="0 0 32 32">
<path stroke-linejoin="round" stroke-linecap="butt" stroke-miterlimit="4" stroke-width="5.3333" d="M2.667 15.273l9.412 8.727 17.255-16"></path>
</symbol>
<symbol id="icon-facebook" viewBox="0 0 32 32">
<path d="M16 0c-8.837 0-16 7.163-16 16s7.163 16 16 16c8.837 0 16-7.163 16-16s-7.163-16-16-16zM17.668 16.703v8.705h-3.602v-8.705h-1.799v-3h1.799v-1.801c0-2.447 1.016-3.902 3.903-3.902h2.403v3h-1.502c-1.124 0-1.198 0.419-1.198 1.202l-0.004 1.501h2.721l-0.318 3h-2.403z"></path>
</symbol>
<symbol id="icon-logo" viewBox="0 0 32 32">
<path d="M13.494 25.968c-0.025-0.123-0.075-0.196-0.15-0.196-0.1 0-0.15 0.074-0.15 0.221-0.025 0.147-0.025 0.319-0.025 0.54 0 0.024 0 0.049 0 0.073s0 0.049 0 0.074c0 0.025 0 0.049 0 0.074s0 0.049 0 0.049c0 0.221 0 0.417 0.025 0.564s0.075 0.245 0.15 0.245c0.1 0 0.15-0.074 0.175-0.221s0.025-0.343 0.025-0.589h0.599c0 0.417-0.025 0.736-0.1 1.006-0.075 0.245-0.299 0.368-0.673 0.368s-0.648-0.147-0.798-0.441c-0.15-0.294-0.224-0.638-0.224-1.030 0-0.417 0.075-0.76 0.249-1.055 0.15-0.294 0.424-0.441 0.798-0.417 0.050 0 0.1 0.024 0.125 0.024s0.075 0.025 0.075 0.025c0.025 0.025 0.050 0.025 0.050 0.025 0.025 0 0.025 0.024 0.025 0.024 0.025 0 0.025 0 0.050-0.024 0.025 0 0.050-0.025 0.075-0.049h0.349v1.177h-0.574c-0.025-0.196-0.050-0.343-0.075-0.466z"></path>
<path d="M15.239 25.845c-0.025 0.025-0.050 0.049-0.075 0.074v1.569c0.025 0.049 0.050 0.073 0.075 0.098s0.075 0.025 0.15 0.025v0.515h-1.197v-0.515c0.050 0 0.1 0 0.15-0.025s0.050-0.049 0.075-0.074v-1.594c0 0 0 0 0-0.024-0.025-0.025-0.025-0.025-0.050-0.049-0.025 0-0.050-0.024-0.075-0.024h-0.050v-0.564h1.197v0.54c-0.125 0-0.175 0.025-0.2 0.049z"></path>
<path d="M15.963 27.611c0.025 0 0.025 0 0.050 0s0.025 0 0.050-0.025c0.025 0 0.025-0.025 0.050-0.025 0 0 0-0.024 0.025-0.024l0.025-0.025v-1.618c0-0.024 0-0.049 0-0.049s-0.025 0-0.075 0c-0.050 0.025-0.075 0.049-0.1 0.074s-0.025 0.049-0.050 0.074c0 0.025 0 0.025 0 0.049s0 0.025 0 0.049v0.442h-0.374v-1.226h1.945v1.226h-0.374v-0.417c0-0.025 0-0.025 0-0.049 0-0.049-0.025-0.074-0.025-0.123-0.025-0.049-0.050-0.074-0.075-0.098-0.050 0-0.075 0-0.075 0-0.025 0-0.025 0.025-0.025 0.049v1.643c0 0.024 0.025 0.024 0.025 0.024s0 0.025 0.025 0.025l0.025 0.025c0 0 0.025 0 0.050 0.024 0 0 0.025 0 0.050 0s0.050 0 0.050 0.025v0.515h-1.247v-0.54c0.025-0.024 0.025-0.024 0.050-0.024z"></path>
<path d="M18.631 25.796c0 0.025 0 0.025 0 0-0.025 0.025-0.025 0.025-0.050 0.025l-0.025 0.024c0 0.025-0.025 0.025-0.025 0.049 0 0 0 0 0 0.024 0 0 0 0 0 0.025l0.175 0.294 0.1-0.294c0-0.025 0-0.025 0-0.025s0-0.024-0.025-0.024c0 0 0-0.025-0.025-0.025l-0.025-0.025v-0.539h0.873v0.539c0 0 0 0-0.025 0-0.050 0-0.1 0-0.15 0.025s-0.075 0.049-0.1 0.098l-0.349 0.981v0.564c0.025 0.049 0.050 0.074 0.075 0.098s0.075 0.024 0.1 0.049c0 0 0 0 0.025 0 0 0 0 0 0.025 0v0.515h-1.172v-0.515c0 0 0 0 0.025 0 0 0 0 0 0.025 0 0.050-0.025 0.075-0.025 0.1-0.049s0.050-0.049 0.050-0.098v-0.564l-0.474-1.005c0 0 0 0 0-0.025 0 0 0 0 0-0.024-0.025-0.025-0.050-0.049-0.075-0.074s-0.050-0.025-0.1-0.025v-0.54h1.072v0.54h-0.025z"></path>
<path d="M10.7 29.156c0.15 0.049 0.299 0.147 0.399 0.294 0.050 0.049 0.075 0.123 0.1 0.196s0.050 0.147 0.050 0.221v0.049c0 0.074 0 0.123-0.025 0.196s-0.050 0.123-0.075 0.172c-0.025 0.025-0.050 0.049-0.050 0.074-0.025 0.024-0.025 0.024-0.050 0.049 0 0.025-0.025 0.025-0.050 0.049s-0.050 0.025-0.075 0.049c0.1 0.049 0.175 0.123 0.249 0.221s0.1 0.196 0.125 0.319c0 0.025 0 0.049 0 0.074s0 0.049 0 0.074 0 0.098 0 0.147c0 0.049-0.025 0.098-0.025 0.147-0.025 0.098-0.1 0.196-0.175 0.27s-0.175 0.123-0.249 0.172c-0.050 0-0.1 0.025-0.15 0.025s-0.1 0-0.15 0.025c-0.050 0-0.1 0-0.15 0s-0.1 0-0.15 0h-0.998v-0.515h0.050c0.025 0 0.050-0.025 0.1-0.025 0.025-0.025 0.050-0.049 0.075-0.074v-1.545c0 0 0 0 0-0.024v-0.025c-0.025-0.025-0.050-0.074-0.075-0.074-0.025-0.024-0.075-0.024-0.125-0.049v-0.54h0.973c0.125 0 0.299 0.025 0.449 0.049zM10.501 30.014c0-0.147-0.025-0.221-0.075-0.245s-0.1-0.049-0.15-0.025h-0.050l-0.025 0.564h0.050c0.050 0 0.1 0 0.15-0.025 0.075-0.049 0.1-0.123 0.1-0.27zM10.501 31.117c0-0.147-0.025-0.221-0.050-0.27s-0.075-0.049-0.125-0.049h-0.1l-0.025 0.638h0.050c0.050 0 0.1 0 0.15-0.025 0.075-0.024 0.1-0.123 0.1-0.294z"></path>
<path d="M13.444 31.313c0 0.025 0 0.049 0.025 0.074s0.050 0.024 0.075 0.049h0.050v0.515h-1.097v-0.54c0 0 0 0 0.025 0 0 0 0 0 0.025 0s0.050-0.024 0.075-0.049c0.025-0.024 0.025-0.049 0.025-0.074l-0.050-0.196h-0.324l-0.050 0.196c0 0.025 0.025 0.049 0.050 0.074s0.075 0.025 0.125 0.025v0.515h-0.973v-0.54c0.025 0 0.025 0 0.050 0h0.025c0.025 0 0.050-0.024 0.050-0.024 0.025 0 0.025-0.025 0.050-0.049 0 0 0-0.024 0.025-0.024 0 0 0-0.025 0.025-0.025l0.449-2.207h0.823l0.524 2.28zM12.272 30.75h0.274l-0.15-0.589-0.125 0.589z"></path>
<path d="M16.012 29.621c-0.025 0-0.025 0.025-0.050 0.025s-0.025 0-0.050 0.025c-0.025 0-0.050 0.024-0.075 0.024s-0.050 0.025-0.050 0.049c-0.025 0.025-0.075 0.074-0.125 0.147s-0.1 0.147-0.2 0.294l0.424 1.177c0 0.025 0.025 0.025 0.025 0.049l0.050 0.049c0 0 0.025 0.024 0.050 0.024 0 0 0.025 0 0.025 0.025 0 0 0.025 0 0.025 0.024l-0.025 0.515h-1.072v-0.515c0.025 0 0.025-0.024 0.050-0.024 0 0 0.025-0.025 0.025-0.049 0 0 0 0 0-0.025 0 0 0 0 0-0.025l-0.15-0.49c0 0 0 0-0.025 0.025s-0.025 0.024-0.050 0.049-0.025 0.024-0.050 0.049-0.025 0.025-0.025 0.025v0.294c0 0.025 0 0.074 0.025 0.074 0.025 0.025 0.025 0.025 0.050 0.049 0 0 0.025 0 0.025 0.025 0 0 0.025 0 0.025 0.024v0.491h-1.097v-0.491c0 0 0.025 0 0.025-0.024 0 0 0.025 0 0.025-0.025 0.025 0 0.025-0.024 0.050-0.024l0.050-0.049 0.025-0.024v-1.545c0-0.049-0.025-0.074-0.050-0.098s-0.050-0.024-0.075-0.049h-0.050v-0.515h1.097v0.54c-0.025 0.024-0.075 0.024-0.1 0.049s-0.025 0.049-0.025 0.074v0.466c0.125-0.172 0.224-0.294 0.249-0.392 0.050-0.098 0.050-0.147 0.050-0.172s0-0.024 0-0.024 0 0 0-0.025v-0.539l0.998-0.025v0.49h-0.025z"></path>
<path d="M18.132 30.21h-0.424v-0.466c0-0.049-0.025-0.073-0.075-0.098s-0.125-0.025-0.175-0.025c-0.075 0-0.125 0.025-0.2 0.049-0.050 0.024-0.1 0.073-0.1 0.123v0.441c0.075 0 0.125 0 0.125-0.049 0.025-0.025 0.025-0.074 0.025-0.172h0.224v0.956h-0.224c0-0.098 0-0.147-0.025-0.172s-0.075-0.025-0.125-0.025v0.54c0 0.049 0.025 0.074 0.1 0.098 0.050 0.025 0.125 0.049 0.2 0.049s0.125-0.025 0.2-0.049c0.050-0.024 0.075-0.074 0.075-0.123v-0.589h0.424v1.275h-1.945v-0.54c0.050 0 0.1 0 0.15-0.049 0.050-0.025 0.075-0.074 0.075-0.123v-1.496c0-0.049-0.025-0.074-0.050-0.098-0.050-0.025-0.1-0.049-0.15-0.049v-0.539h1.945v1.128h-0.050z"></path>
<path d="M19.729 29.156c0.15 0.049 0.299 0.147 0.399 0.294 0.050 0.049 0.075 0.123 0.1 0.196s0.050 0.147 0.050 0.221v0.049c0 0.074 0 0.123-0.025 0.196s-0.050 0.123-0.075 0.172c0 0.025 0 0.025-0.025 0.049s-0.025 0.049-0.050 0.074l-0.025 0.025-0.025 0.024c-0.025 0.025-0.050 0.049-0.075 0.049-0.025 0.024-0.050 0.024-0.050 0.024 0.125 0.025 0.224 0.098 0.249 0.196 0.050 0.098 0.075 0.196 0.075 0.294 0 0.024 0 0.024 0 0.049s0 0.024 0 0.049 0 0.049 0 0.098c0 0.025 0 0.049 0 0.098 0 0.074 0 0.123 0 0.147 0 0.049 0 0.073 0.025 0.073s0.050 0 0.050-0.024c0-0.025 0.025-0.025 0.025-0.049v-0.049h0.075c0 0 0 0 0 0.025 0 0 0 0.025 0 0.049s0 0.049 0 0.074 0 0.049 0 0.074 0 0.049-0.025 0.098-0.075 0.147-0.15 0.221-0.175 0.098-0.349 0.098c-0.2 0-0.324-0.073-0.349-0.196-0.050-0.123-0.050-0.27-0.075-0.417 0-0.025 0-0.025 0-0.025v-0.073c0-0.098 0-0.221-0.025-0.319 0-0.098-0.050-0.196-0.1-0.27l-0.025-0.025c0 0-0.025 0-0.025-0.025h-0.050v0.711c0.025 0.049 0.050 0.074 0.075 0.074 0.025 0.025 0.075 0.025 0.125 0.025v0.515h-1.197v-0.515h0.050c0.025 0 0.050-0.025 0.1-0.025 0.025-0.024 0.050-0.049 0.075-0.074v-1.545c0 0 0 0 0-0.025v-0.025c-0.025-0.024-0.050-0.074-0.075-0.074-0.025-0.024-0.075-0.024-0.125-0.049v-0.539h0.973c0.125-0.049 0.299-0.025 0.474 0zM19.504 30.014c0-0.147-0.025-0.221-0.075-0.245s-0.1-0.049-0.15-0.025h-0.050l-0.025 0.564h0.050c0.050 0 0.1 0 0.15-0.025 0.075-0.049 0.1-0.123 0.1-0.27z"></path>
<path d="M21.699 29.621c0 0.025 0 0.025 0 0-0.025 0.025-0.025 0.025-0.050 0.025l-0.025 0.025c0 0.024-0.025 0.024-0.025 0.049 0 0 0 0 0 0.024 0 0 0 0 0 0.025l0.175 0.294 0.1-0.294c0-0.025 0-0.025 0-0.025s0-0.024-0.025-0.024c0 0 0-0.025-0.025-0.025l-0.025-0.024v-0.54h0.873v0.54c0 0 0 0-0.025 0s0 0 0 0c-0.050 0-0.1 0-0.15 0.024s-0.075 0.049-0.1 0.098l-0.349 0.981v0.564c0.025 0.049 0.050 0.073 0.075 0.098s0.075 0.025 0.1 0.049c0 0 0 0 0.025 0 0 0 0 0 0.025 0v0.515h-1.172v-0.515c0 0 0 0 0.025 0 0 0 0 0 0.025 0 0.050-0.024 0.075-0.024 0.1-0.049s0.050-0.049 0.050-0.098v-0.564l-0.474-1.005c0 0 0 0 0-0.025 0 0 0 0 0-0.024-0.025-0.025-0.050-0.049-0.075-0.074s-0.050-0.025-0.1-0.025v-0.539h1.072v0.539h-0.025z"></path>
<path d="M4.964 20.353v-2.329h0.798v0.294h-0.449v0.687h0.399v0.294h-0.399v0.736h0.449v0.319h-0.798z"></path>
<path d="M6.012 19.715v-0.196h0.349v0.245c0 0.123 0 0.221 0.025 0.27s0.075 0.074 0.125 0.074c0.050 0 0.1-0.025 0.125-0.074s0.025-0.123 0.025-0.221c0-0.098-0.025-0.172-0.050-0.245s-0.1-0.147-0.175-0.221l-0.175-0.172c-0.075-0.098-0.15-0.196-0.175-0.294-0.050-0.098-0.075-0.196-0.075-0.319 0-0.196 0.050-0.343 0.125-0.417 0.075-0.098 0.199-0.147 0.399-0.147 0.175 0 0.299 0.049 0.374 0.172 0.075 0.098 0.1 0.27 0.1 0.466v0.147h-0.324v-0.147c0-0.123 0-0.196-0.025-0.245s-0.050-0.074-0.125-0.074c-0.050 0-0.1 0.025-0.125 0.049-0.025 0.049-0.025 0.098-0.025 0.172s0 0.123 0.050 0.172c0.025 0.049 0.075 0.098 0.125 0.172l0.2 0.196c0.1 0.098 0.175 0.221 0.224 0.319s0.075 0.221 0.075 0.343c0 0.221-0.025 0.368-0.1 0.49-0.075 0.098-0.199 0.147-0.399 0.147-0.175 0-0.324-0.049-0.399-0.172-0.125-0.098-0.15-0.27-0.15-0.49z"></path>
<path d="M7.383 20.352v-2.011h-0.274v-0.294h0.898v0.294h-0.274v2.011h-0.349z"></path>
<path d="M8.206 20.352v-2.329h0.524c0.175 0 0.299 0.049 0.374 0.147s0.125 0.245 0.125 0.441v1.054c0 0.245-0.050 0.417-0.125 0.515s-0.2 0.172-0.399 0.172h-0.499zM8.58 20.083h0.1c0.075 0 0.125-0.025 0.15-0.074s0.050-0.123 0.050-0.221v-1.152c0-0.123-0.025-0.196-0.050-0.245s-0.075-0.074-0.15-0.074h-0.1v1.765z"></path>
<path d="M23.444 20.352v-1.888c-0.025 0.025-0.075 0.074-0.125 0.074-0.050 0.025-0.1 0.025-0.175 0.025v-0.27c0.075 0 0.15-0.049 0.224-0.098s0.125-0.123 0.15-0.196h0.274v2.354h-0.349z"></path>
<path d="M24.991 20.23c-0.075 0.098-0.2 0.172-0.374 0.172s-0.299-0.049-0.374-0.147c-0.075-0.098-0.125-0.245-0.125-0.441v-0.123h0.349v0.049c0 0.147 0 0.245 0.025 0.294s0.050 0.074 0.1 0.074c0.050 0 0.075 0 0.1-0.025 0-0.025 0.025-0.049 0.025-0.074s0-0.098 0-0.196v-0.343c-0.050 0.025-0.125 0.049-0.224 0.049-0.15 0-0.274-0.049-0.349-0.172s-0.1-0.294-0.1-0.515v-0.074c0-0.294 0.050-0.49 0.15-0.588 0.075-0.074 0.2-0.123 0.349-0.123s0.274 0.025 0.324 0.098c0.075 0.049 0.125 0.147 0.15 0.245s0.025 0.245 0.025 0.392v0.932c0.050 0.196 0.025 0.392-0.050 0.515zM24.592 19.2c0.1 0 0.15-0.049 0.15-0.123v-0.441c0-0.123 0-0.196-0.025-0.245s-0.050-0.074-0.125-0.074c-0.050 0-0.1 0.025-0.125 0.074s-0.025 0.123-0.025 0.245v0.196c0 0.123 0 0.221 0.025 0.27 0.025 0.074 0.075 0.098 0.125 0.098z"></path>
<path d="M25.913 20.377c-0.324 0-0.474-0.147-0.474-0.466v-0.294h0.324v0.245c0 0.098 0.025 0.172 0.075 0.196 0.025 0 0.050 0.025 0.075 0.025 0.075 0 0.125-0.074 0.125-0.221v-0.588c0-0.074 0-0.147-0.025-0.196s-0.050-0.074-0.1-0.074c-0.1 0-0.15 0.074-0.15 0.221l-0.324-0.025v-1.177h0.873v0.319h-0.549v0.466c0.025-0.025 0.050-0.049 0.1-0.074s0.1-0.025 0.15-0.025c0.15 0 0.224 0.049 0.299 0.172 0.050 0.123 0.075 0.319 0.075 0.564 0 0.27 0 0.441-0.025 0.539s-0.050 0.172-0.075 0.221c-0.075 0.123-0.2 0.172-0.374 0.172z"></path>
<path d="M26.886 20.352v-1.888c-0.025 0.025-0.075 0.074-0.125 0.074-0.050 0.025-0.1 0.025-0.175 0.025v-0.27c0.075 0 0.15-0.049 0.224-0.098s0.125-0.123 0.15-0.196h0.274v2.354h-0.349z"></path>
<path d="M22.073 2.109c-0.474-0.221-1.023-0.025-1.222 0.466-0.175 0.441-0.050 0.932 0.324 1.202l-2.619 4.316c-0.125-0.098-0.249-0.172-0.374-0.245l0.549-5.272c0.050 0 0.1 0 0.125 0 0.449-0.025 0.823-0.368 0.898-0.858 0.050-0.539-0.324-1.005-0.823-1.079-0.075 0-0.125 0-0.2 0-0.449 0.025-0.848 0.368-0.898 0.858-0.050 0.466 0.249 0.907 0.648 1.030l-1.322 4.806c-0.075-0.025-0.15-0.049-0.224-0.049-0.025 0-0.025 0-0.050-0.025-0.050-0.025-0.1-0.025-0.175-0.025-0.050 0-0.075-0.025-0.125-0.025l-0.499-5.272h0.025c0.424-0.049 0.773-0.392 0.823-0.858 0.050-0.539-0.324-1.005-0.823-1.054-0.025 0-0.075 0-0.1 0s-0.075 0-0.1 0c-0.499 0.049-0.873 0.539-0.823 1.054 0.050 0.466 0.399 0.809 0.823 0.858h0.025l-0.524 5.272c-0.050 0-0.075 0.025-0.125 0.025s-0.1 0.025-0.175 0.025c-0.025 0-0.025 0-0.050 0.025-0.075 0.025-0.15 0.025-0.224 0.049l-1.347-4.806c0.424-0.123 0.723-0.564 0.673-1.030-0.050-0.49-0.424-0.834-0.898-0.858-0.075 0-0.125 0-0.2 0-0.499 0.049-0.873 0.539-0.823 1.079 0.050 0.49 0.424 0.858 0.898 0.858 0.050 0 0.075 0 0.125 0l0.549 5.272c-0.125 0.074-0.249 0.147-0.374 0.245l-2.619-4.316c0.349-0.27 0.499-0.785 0.324-1.202-0.2-0.49-0.748-0.687-1.222-0.466s-0.673 0.809-0.474 1.3c0.2 0.49 0.748 0.687 1.222 0.466l2.070 4.806c-0.1 0.123-0.175 0.245-0.274 0.368 0.524 0.417 0.773 0.638 0.773 0.638 0.224-0.343 1.496-0.662 2.743-0.736 1.222 0.074 2.519 0.392 2.743 0.736 0 0 0.249-0.221 0.773-0.638-0.075-0.123-0.175-0.245-0.274-0.368l2.070-4.806c0.474 0.245 0.998 0.025 1.222-0.466s0.025-1.079-0.449-1.3z"></path>
<path d="M26.387 9.514c-0.299 0.221-0.599 0.515-0.973 0.907-0.1 0.098-0.2 0.221-0.274 0.319-0.349 0.392-0.648 0.687-0.923 0.834l-0.923-1.177-17.308 13.168 0.923 1.177c-0.224 0.196-0.549 0.368-0.948 0.564-0.125 0.074-0.249 0.123-0.374 0.196-0.474 0.245-0.848 0.466-1.122 0.687-0.948 0.711-0.848 1.275-0.574 1.618 0.075 0.098 0.249 0.319 0.574 0.343s0.673-0.123 1.122-0.441c0.299-0.221 0.623-0.539 0.998-0.932 0.175-0.196 0.324-0.368 0.449-0.515 0.175-0.221 0.349-0.417 0.499-0.54 0.025-0.024 0.050-0.049 0.075-0.049l0.973 1.226 12.121-9.22 5.187-3.972-0.948-1.202c0.050-0.074 0.1-0.123 0.175-0.196 0.15-0.123 0.399-0.221 0.648-0.343 0.2-0.074 0.399-0.172 0.623-0.294 0.474-0.245 0.873-0.49 1.172-0.711 0.449-0.343 0.673-0.662 0.723-0.956 0.050-0.319-0.125-0.515-0.2-0.613-0.224-0.343-0.748-0.588-1.696 0.123zM6.535 25.845c-0.125 0.172-0.274 0.319-0.424 0.491-0.349 0.368-0.648 0.662-0.923 0.858-0.424 0.319-0.599 0.343-0.673 0.319-0.050 0-0.075-0.024-0.125-0.098-0.15-0.196 0.175-0.515 0.449-0.736 0.249-0.196 0.599-0.417 1.047-0.638 0.125-0.074 0.249-0.123 0.374-0.196 0.15-0.074 0.324-0.147 0.449-0.245-0.050 0.098-0.125 0.172-0.175 0.245zM25.016 13.609l-16.335 12.383-0.15-0.196 16.311-12.383 0.175 0.196zM24.467 12.923l-16.311 12.383-1.297-1.643 16.311-12.383 1.297 1.643zM27.684 9.907c0 0.074-0.075 0.245-0.499 0.564-0.274 0.196-0.623 0.417-1.072 0.662-0.2 0.098-0.399 0.196-0.599 0.294-0.1 0.049-0.175 0.074-0.249 0.123 0.125-0.123 0.224-0.245 0.349-0.368 0.1-0.098 0.175-0.196 0.274-0.319 0.324-0.343 0.623-0.638 0.873-0.834 0.299-0.221 0.698-0.466 0.848-0.245 0.075 0.049 0.075 0.074 0.075 0.123z"></path>
<path d="M27.559 26.189c-0.299-0.221-0.673-0.441-1.122-0.687-0.125-0.074-0.249-0.123-0.374-0.196-0.399-0.196-0.723-0.368-0.948-0.564l0.923-1.177-6.759-5.149c-0.175 0.147-0.324 0.27-0.499 0.392l6.36 4.855-1.297 1.643-6.809-5.149c-0.175 0.123-0.324 0.27-0.474 0.392l6.908 5.248-0.15 0.196-6.958-5.272c-0.125 0.098-0.249 0.221-0.374 0.343-0.025 0.025-0.075 0.049-0.1 0.098l7.532 5.738 0.973-1.226c0.025 0.024 0.050 0.024 0.075 0.049 0.15 0.123 0.324 0.319 0.499 0.54 0.125 0.172 0.274 0.343 0.449 0.515 0.374 0.392 0.698 0.711 0.998 0.932 0.449 0.343 0.823 0.49 1.122 0.441 0.324-0.024 0.474-0.245 0.574-0.343 0.299-0.343 0.399-0.907-0.549-1.618zM27.634 27.415c-0.050 0.073-0.075 0.098-0.125 0.098-0.075 0-0.249 0-0.673-0.319-0.274-0.196-0.574-0.49-0.923-0.858-0.15-0.172-0.299-0.343-0.424-0.491-0.050-0.074-0.125-0.147-0.175-0.221 0.15 0.073 0.299 0.147 0.449 0.245 0.125 0.049 0.249 0.123 0.374 0.196 0.424 0.221 0.773 0.441 1.047 0.638s0.599 0.515 0.449 0.711z"></path>
<path d="M12.72 18.71c0.075-0.049 0.125-0.123 0.2-0.172 0.1-0.074 0.2-0.147 0.299-0.221l-0.549-0.417-0.998-0.76-4.664-3.531 0.15-0.196 5.686 4.316 0.599 0.466c0.175-0.123 0.349-0.245 0.524-0.368l-0.748-0.564-0.998-0.76-4.689-3.58 1.297-1.643 5.686 4.316 1.247 0.956c0.2-0.123 0.374-0.221 0.574-0.343l-1.422-1.103-6.185-4.708-0.923 1.177c-0.274-0.147-0.574-0.441-0.923-0.834-0.1-0.098-0.199-0.221-0.274-0.319-0.349-0.368-0.673-0.687-0.973-0.907-0.948-0.711-1.471-0.466-1.721-0.147-0.075 0.098-0.249 0.319-0.2 0.613 0.025 0.319 0.274 0.638 0.723 0.981 0.299 0.221 0.673 0.466 1.172 0.711 0.224 0.123 0.449 0.221 0.623 0.294 0.274 0.123 0.499 0.221 0.673 0.343 0.075 0.049 0.125 0.123 0.175 0.196l-0.948 1.202 6.16 4.708 0.424 0.294zM6.485 11.402c-0.199-0.074-0.399-0.172-0.599-0.294-0.449-0.245-0.823-0.466-1.072-0.662-0.424-0.319-0.474-0.49-0.499-0.564 0-0.049 0-0.074 0.075-0.147 0.15-0.196 0.549 0.025 0.848 0.245 0.249 0.196 0.549 0.466 0.873 0.834 0.1 0.098 0.199 0.221 0.274 0.319 0.125 0.123 0.224 0.27 0.349 0.368-0.075 0-0.15-0.049-0.249-0.098z"></path>
</symbol>
<symbol id="icon-loupe" viewBox="0 0 32 32">
<path d="M14.092 0c-7.77 0-14.092 6.322-14.092 14.092s6.322 14.092 14.092 14.092c7.771 0 14.092-6.321 14.092-14.092s-6.321-14.092-14.092-14.092zM14.092 25.583c-6.336 0-11.491-5.155-11.491-11.491s5.155-11.491 11.491-11.491c6.336 0 11.491 5.155 11.491 11.491s-5.155 11.491-11.491 11.491z"></path>
<path d="M31.619 29.779l-7.458-7.458c-0.508-0.508-1.331-0.508-1.839 0s-0.508 1.332 0 1.839l7.458 7.458c0.254 0.254 0.587 0.381 0.92 0.381s0.665-0.127 0.92-0.381c0.508-0.508 0.508-1.332 0-1.839z"></path>
</symbol>
<symbol id="icon-shopping-cart" viewBox="0 0 32 32">
<path d="M10.31 20.688h0.001c0.001 0 0.002-0 0.004-0h16.997c0.418 0 0.786-0.278 0.901-0.68l3.75-13.125c0.081-0.283 0.024-0.587-0.153-0.822s-0.454-0.373-0.748-0.373h-22.915l-0.67-3.016c-0.095-0.429-0.476-0.734-0.915-0.734h-5.625c-0.518 0-0.938 0.42-0.938 0.938s0.42 0.938 0.938 0.938h4.873c0.119 0.534 3.207 14.432 3.385 15.232-0.996 0.433-1.695 1.426-1.695 2.58 0 1.551 1.262 2.813 2.813 2.813h17c0.518 0 0.938-0.42 0.938-0.938s-0.42-0.938-0.938-0.938h-17c-0.517 0-0.938-0.421-0.938-0.938s0.419-0.936 0.935-0.937zM29.82 7.563l-3.214 11.25h-15.541l-2.5-11.25h21.255z"></path>
<path d="M9.375 27.25c0 1.551 1.262 2.812 2.813 2.812s2.812-1.262 2.812-2.812c0-1.551-1.262-2.813-2.812-2.813s-2.813 1.262-2.813 2.813zM12.188 26.313c0.517 0 0.938 0.421 0.938 0.938s-0.421 0.938-0.938 0.938c-0.517 0-0.938-0.421-0.938-0.938s0.421-0.938 0.938-0.938z"></path>
<path d="M22.625 27.25c0 1.551 1.262 2.812 2.813 2.812s2.812-1.262 2.812-2.812c0-1.551-1.262-2.813-2.812-2.813s-2.813 1.262-2.813 2.813zM25.438 26.313c0.517 0 0.938 0.421 0.938 0.938s-0.421 0.938-0.938 0.938c-0.517 0-0.938-0.421-0.938-0.938s0.421-0.938 0.938-0.938z"></path>
</symbol>
<symbol id="icon-heart-1" viewBox="0 0 32 32">
<path d="M23.467 0.984h-0c-3.085 0.014-5.926 1.667-7.466 4.332-1.922-3.359-5.858-5.028-9.617-4.061-3.808 0.979-6.469 4.414-6.466 8.346 0 4.608 2.758 9.96 6.135 14.154 1.69 2.099 3.538 3.912 5.28 5.201 1.739 1.287 3.385 2.062 4.668 2.062s2.93-0.775 4.668-2.062c1.742-1.289 3.59-3.103 5.28-5.201 3.377-4.194 6.135-9.546 6.135-14.154v-0c-0.006-4.757-3.86-8.611-8.617-8.617zM1.15 9.6v-0c-0.002-3.561 2.539-6.615 6.040-7.261s6.965 1.301 8.234 4.628l0 0c0.091 0.239 0.32 0.396 0.576 0.396s0.485-0.157 0.576-0.396l0-0c1.268-3.327 4.732-5.274 8.234-4.628s6.042 3.7 6.040 7.261v0c0 4.359-2.718 9.407-5.948 13.372-1.613 1.981-3.35 3.686-4.932 4.896-0.791 0.605-1.541 1.085-2.217 1.413-0.677 0.329-1.272 0.502-1.754 0.502s-1.077-0.174-1.754-0.502c-0.675-0.328-1.426-0.808-2.217-1.413-1.581-1.21-3.319-2.915-4.932-4.896-3.229-3.965-5.948-9.013-5.948-13.372z"></path>
<path d="M11.65 12.267c0 0.341 0.276 0.617 0.617 0.617s0.617-0.276 0.617-0.617c0-1.519-1.231-2.75-2.75-2.75s-2.75 1.231-2.75 2.75c0 0.341 0.276 0.617 0.617 0.617s0.617-0.276 0.617-0.617c0-0.838 0.679-1.517 1.517-1.517s1.517 0.679 1.517 1.517z"></path>
<path d="M20.637 15.96l-0 0c0-0-0.001 0.001-0.004 0.003l-0.012 0.009c-0.010 0.008-0.025 0.020-0.044 0.036-0.038 0.031-0.092 0.077-0.156 0.135-0.129 0.116-0.299 0.282-0.468 0.484-0.341 0.407-0.668 0.945-0.668 1.506 0 0.556 0.327 1.095 0.669 1.503 0.169 0.202 0.34 0.369 0.468 0.486 0.064 0.058 0.118 0.104 0.156 0.136 0.037 0.030 0.058 0.047 0.060 0.048l0 0 0.001 0c0.272 0.204 0.328 0.591 0.123 0.863s-0.591 0.328-0.863 0.123l-0.001-0.001c-0.586-0.459-1.075-1.029-1.438-1.677-0.717 0.504-1.579 0.763-2.457 0.735-0.878 0.027-1.739-0.232-2.456-0.736-0.364 0.649-0.853 1.219-1.44 1.678l-0.001 0.001c-0.273 0.204-0.659 0.149-0.863-0.123s-0.149-0.659 0.123-0.863l0.001-0.001c-0 0 0-0 0-0s0.006-0.005 0.015-0.012c0.010-0.008 0.025-0.020 0.044-0.036 0.038-0.031 0.092-0.077 0.156-0.135 0.129-0.116 0.299-0.282 0.468-0.484 0.341-0.407 0.668-0.945 0.668-1.506 0-0.557-0.327-1.095-0.669-1.503-0.169-0.202-0.34-0.369-0.468-0.486-0.064-0.058-0.118-0.104-0.156-0.136-0.037-0.030-0.058-0.047-0.060-0.048-0-0-0-0-0-0l-0.001-0c-0.272-0.204-0.328-0.591-0.123-0.863l9.397 0.863zM20.637 15.96c0.272-0.204 0.328-0.591 0.123-0.863s-0.59-0.327-0.863-0.124l0.74 0.987z"></path>
<path d="M21.867 9.517h-0c-1.518 0.002-2.748 1.232-2.75 2.75v0c0 0.341 0.276 0.617 0.617 0.617s0.617-0.276 0.617-0.617c0-0.838 0.679-1.517 1.517-1.517s1.517 0.679 1.517 1.517c0 0.341 0.276 0.617 0.617 0.617s0.617-0.276 0.617-0.617v-0c-0.002-1.518-1.232-2.748-2.75-2.75z"></path>
</symbol>
<symbol id="icon-support" viewBox="0 0 32 32">
<path d="M15.944 4.066c0.348 0 0.629-0.282 0.629-0.629v-2.807c0-0.348-0.282-0.629-0.629-0.629s-0.629 0.282-0.629 0.629v2.807c0 0.348 0.282 0.629 0.629 0.629z"></path>
<path d="M31.33 21.624l-1.112-1.109c-0.396-0.395-0.923-0.613-1.485-0.613-0.359 0-0.704 0.089-1.010 0.257l-2.095-2.093 0.102-0.102c0.85-0.852 0.85-2.236-0-3.085-0.304-0.304-0.683-0.507-1.096-0.592 0.057-0.196 0.087-0.402 0.087-0.612 0-0.585-0.227-1.133-0.638-1.542-0.304-0.304-0.683-0.507-1.096-0.593 0.057-0.196 0.087-0.402 0.087-0.612 0-0.585-0.227-1.133-0.639-1.543-0.311-0.311-0.693-0.507-1.095-0.591 0.215-0.74 0.031-1.573-0.551-2.157-0.485-0.483-1.143-0.69-1.777-0.623l-4.152-0.786c-0.633-0.12-1.424-0.2-1.923 0.256-0.032 0.029-0.064 0.062-0.095 0.099-0.774-0.282-1.677-0.114-2.297 0.505-0.411 0.411-0.638 0.959-0.638 1.543 0 0.21 0.030 0.416 0.087 0.612-0.413 0.085-0.791 0.288-1.094 0.591-0.412 0.41-0.639 0.958-0.64 1.541-0 0.211 0.030 0.417 0.087 0.614-0.413 0.085-0.792 0.287-1.095 0.591-0.412 0.412-0.639 0.96-0.639 1.544 0 0.447 0.134 0.874 0.381 1.234-0.313 0.106-0.599 0.282-0.838 0.522-0.851 0.85-0.851 2.234 0.001 3.087l0.102 0.101-2.096 2.092c-0.779-0.367-1.738-0.229-2.381 0.413l-1.113 1.109c-0.396 0.395-0.614 0.923-0.614 1.485s0.218 1.089 0.614 1.485l1.389 1.387c0.246 0.246 0.644 0.245 0.89-0s0.245-0.645-0.001-0.89l-1.389-1.387c-0.158-0.157-0.244-0.368-0.244-0.594s0.087-0.437 0.244-0.594l1.113-1.11c0.278-0.278 0.704-0.319 1.027-0.126 0.023 0.034 0.049 0.067 0.079 0.097 0.054 0.054 0.115 0.095 0.181 0.126l6.381 6.371c0.030 0.066 0.072 0.128 0.126 0.183 0.053 0.053 0.113 0.094 0.177 0.124 0.135 0.153 0.21 0.347 0.21 0.555 0 0.226-0.087 0.437-0.244 0.594l-1.112 1.11c-0.328 0.327-0.863 0.327-1.19 0.001l-1.389-1.389c-0.246-0.246-0.644-0.246-0.89 0s-0.246 0.644 0 0.89l1.39 1.39c0.409 0.407 0.946 0.611 1.484 0.611s1.075-0.204 1.485-0.612l1.112-1.111c0.396-0.395 0.614-0.923 0.614-1.485 0-0.401-0.112-0.784-0.319-1.115l2.359-2.356c0.002-0.003 0.005-0.005 0.008-0.008 0.27-0.279 1.022-0.227 1.749-0.176 0.517 0.036 1.093 0.076 1.656 0.011l2.583 2.58c-0.167 0.305-0.257 0.649-0.257 1.008 0 0.562 0.218 1.089 0.614 1.484l1.112 1.111c0.395 0.395 0.923 0.613 1.484 0.613s1.089-0.218 1.484-0.613l6.746-6.738c0.396-0.395 0.614-0.923 0.614-1.485s-0.218-1.089-0.614-1.485zM14.626 6.465l2.73 0.517-1.634 1.634c-0.253-0.121-0.599-0.348-0.979-0.712-0.52-0.498-0.893-1.072-0.926-1.431-0-0-0-0-0-0.001s-0-0-0-0c-0.002-0.026-0.003-0.046-0.003-0.062 0.082-0.020 0.301-0.042 0.813 0.055zM11.435 6.978c0.319-0.319 0.814-0.355 1.175-0.111 0.204 0.856 0.935 1.632 1.263 1.946 0.244 0.233 1.025 0.932 1.813 1.124 0.107 0.153 0.165 0.335 0.165 0.528 0 0.248-0.095 0.48-0.269 0.653s-0.405 0.269-0.654 0.269-0.48-0.095-0.654-0.27l-0-0-2.839-2.833c-0.173-0.173-0.268-0.405-0.268-0.652s0.095-0.479 0.268-0.652zM9.79 9.725c0.173-0.173 0.405-0.269 0.653-0.269s0.481 0.096 0.655 0.27l2.286 2.281c0.36 0.36 0.36 0.947 0.001 1.306-0.174 0.173-0.407 0.269-0.656 0.269s-0.482-0.095-0.655-0.268h-0l-1.734-1.734c-0.003-0.003-0.006-0.005-0.008-0.008l-0.543-0.542c-0.174-0.174-0.27-0.406-0.27-0.654s0.096-0.478 0.27-0.652zM8.142 12.471c0.173-0.173 0.406-0.268 0.654-0.268 0.247 0 0.477 0.094 0.649 0.264l1.739 1.739c0.173 0.173 0.269 0.404 0.269 0.652s-0.096 0.479-0.27 0.652c-0.173 0.173-0.405 0.268-0.653 0.268s-0.481-0.096-0.655-0.268l-0.631-0.63c-0-0-0-0-0-0l-1.103-1.102c-0.174-0.174-0.27-0.406-0.27-0.653s0.096-0.479 0.27-0.653zM7.046 15.77c0.174-0.174 0.407-0.27 0.655-0.27s0.481 0.096 0.655 0.269l0.631 0.631c0.174 0.173 0.269 0.404 0.269 0.652s-0.096 0.479-0.27 0.653c-0.173 0.173-0.405 0.269-0.654 0.269s-0.48-0.095-0.655-0.27l-0.079-0.079c-0.001-0.001-0.002-0.002-0.003-0.003s-0.002-0.002-0.004-0.003l-0.545-0.543c-0.36-0.361-0.36-0.946-0.001-1.305zM19.873 22.923c-0.246-0.246-0.644-0.246-0.89-0.001l-0.56 0.559c-0.532 0.532-1.496 0.465-2.429 0.4-1.013-0.070-2.060-0.143-2.737 0.553l-2.318 2.316-5.798-5.789 2.052-2.048c0.339 0.208 0.73 0.319 1.14 0.319 0.585 0 1.133-0.227 1.543-0.637 0.412-0.411 0.64-0.959 0.64-1.544 0-0.005-0-0.011-0-0.016 0.005 0 0.011 0 0.016 0 0.584 0 1.132-0.226 1.542-0.636 0.412-0.411 0.64-0.959 0.64-1.544 0-0.005-0-0.011-0-0.016 0.005 0 0.011 0 0.017 0 0.584 0 1.132-0.226 1.545-0.637 0.429-0.429 0.641-0.995 0.637-1.559 0.006 0 0.011 0 0.017 0 0.585-0 1.133-0.227 1.544-0.638s0.638-0.959 0.638-1.543c0-0.409-0.111-0.799-0.318-1.138l1.798-1.798c0.134-0.133 0.299-0.217 0.472-0.252 0.019-0.002 0.037-0.005 0.056-0.009 0.278-0.038 0.57 0.047 0.782 0.259 0.36 0.361 0.36 0.947 0.001 1.306l-0.548 0.545c-0.002 0.002-0.004 0.003-0.006 0.005l-0.631 0.63c-0.246 0.246-0.246 0.644-0.001 0.89s0.644 0.246 0.89 0.001l0.55-0.549c0-0 0-0 0-0l0.083-0.083c0.361-0.358 0.946-0.357 1.306 0.003 0.174 0.173 0.269 0.404 0.269 0.652s-0.096 0.479-0.27 0.653l-0.551 0.552c-0 0-0 0-0 0l-0.631 0.628c-0.246 0.245-0.247 0.644-0.002 0.89s0.644 0.247 0.89 0.002l0.634-0.631c0.173-0.173 0.405-0.269 0.654-0.269s0.48 0.096 0.655 0.27c0.174 0.173 0.269 0.404 0.269 0.652s-0.095 0.479-0.27 0.653l-1.098 1.099c-0.246 0.246-0.246 0.644 0 0.89 0.123 0.123 0.284 0.184 0.445 0.184s0.322-0.062 0.445-0.184l0.538-0.538c0.003-0.003 0.006-0.006 0.009-0.009 0.173-0.173 0.405-0.269 0.654-0.269s0.48 0.096 0.654 0.27c0.36 0.359 0.359 0.945 0 1.305l-0.547 0.547c-0 0-0 0-0.001 0.001s-0 0-0.001 0.001l-0.869 0.867c-0.246 0.246-0.246 0.644-0.001 0.89 0.123 0.123 0.284 0.185 0.445 0.185s0.322-0.061 0.445-0.184l0.425-0.424 2.036 2.034-5.797 5.79-2.077-2.075c0.145-0.093 0.283-0.203 0.413-0.333l0.56-0.559c0.246-0.246 0.246-0.644 0.001-0.89zM30.441 23.703l-6.746 6.738c-0.158 0.158-0.369 0.244-0.595 0.244s-0.437-0.087-0.595-0.245l-1.112-1.111c-0.158-0.157-0.244-0.368-0.244-0.593s0.087-0.436 0.244-0.593l6.746-6.738c0.158-0.158 0.369-0.244 0.595-0.244s0.437 0.087 0.595 0.245l1.112 1.109c0.158 0.157 0.244 0.368 0.244 0.594s-0.087 0.437-0.245 0.594z"></path>
<path d="M7.586 3.536c0.123 0.123 0.284 0.184 0.445 0.184s0.323-0.062 0.446-0.185c0.246-0.246 0.245-0.645-0.001-0.89l-2.294-2.289c-0.246-0.246-0.645-0.245-0.89 0.001s-0.245 0.645 0.001 0.89l2.294 2.289z"></path>
<path d="M23.858 3.719c0.161 0 0.322-0.061 0.445-0.184l2.292-2.289c0.246-0.246 0.246-0.644 0-0.89s-0.644-0.246-0.89-0.001l-2.292 2.289c-0.246 0.246-0.246 0.644-0.001 0.89 0.123 0.123 0.284 0.185 0.445 0.185z"></path>
<path d="M3.926 27.075c-0.244 0.248-0.24 0.646 0.008 0.89l0.002 0.002c0.122 0.12 0.281 0.18 0.44 0.18 0.163 0 0.326-0.063 0.449-0.189 0.244-0.248 0.239-0.647-0.008-0.891s-0.646-0.24-0.89 0.008z"></path>
<path d="M21.413 22.017c0.096 0 0.193-0.022 0.284-0.068 0.31-0.157 0.435-0.535 0.279-0.845s-0.535-0.435-0.845-0.279l-0.003 0.002c-0.31 0.157-0.433 0.534-0.277 0.845 0.11 0.219 0.333 0.345 0.563 0.345z"></path>
</symbol>
<symbol id="icon-telegram" viewBox="0 0 32 32">
<path d="M0 16c0 8.837 7.163 16 16 16s16-7.163 16-16c0-8.837-7.163-16-16-16s-16 7.163-16 16zM13.067 23.333l0.272-4.078-0-0 7.419-6.695c0.326-0.289-0.071-0.43-0.503-0.168l-9.156 5.777-3.955-1.234c-0.854-0.262-0.86-0.848 0.192-1.27l15.412-5.943c0.704-0.32 1.383 0.169 1.115 1.246l-2.625 12.368c-0.183 0.879-0.714 1.089-1.45 0.683l-3.998-2.954-1.922 1.869c-0.006 0.006-0.012 0.012-0.018 0.018-0.215 0.209-0.393 0.382-0.782 0.382z"></path>
</symbol>
<symbol id="icon-telescope" viewBox="0 0 32 32">
<path d="M30.269 4.869c-0.299-0.525-0.709-0.978-1.201-1.328s-1.055-0.589-1.649-0.699l-0.319-1.319c-0.014-0.056-0.038-0.109-0.072-0.155s-0.077-0.086-0.126-0.116-0.104-0.050-0.161-0.059c-0.057-0.009-0.115-0.006-0.171 0.008l-2.45 0.593c-0.113 0.027-0.21 0.098-0.27 0.197s-0.079 0.218-0.052 0.331l0.234 0.964-16.257 3.936c-0.112 0.028-0.209 0.099-0.27 0.198s-0.079 0.218-0.052 0.33l0.157 0.647-2.952 0.715c-0.113 0.027-0.21 0.098-0.27 0.197s-0.079 0.218-0.052 0.331l0.231 0.955-3.044 0.737c-0.056 0.014-0.109 0.038-0.155 0.072s-0.086 0.077-0.116 0.126c-0.030 0.049-0.050 0.104-0.059 0.16s-0.006 0.115 0.007 0.171l0.563 2.322c0.023 0.095 0.078 0.18 0.155 0.241s0.172 0.094 0.27 0.094c0.035-0 0.069-0.004 0.103-0.012l3.044-0.737 0.231 0.952c0.023 0.095 0.078 0.18 0.155 0.241s0.172 0.094 0.27 0.094c0.035 0 0.069-0.004 0.103-0.013l2.952-0.714 0.157 0.647c0.023 0.095 0.078 0.18 0.155 0.241s0.172 0.094 0.27 0.094c0.035 0 0.069-0.004 0.103-0.013l4.373-1.059c0.053 0.251 0.154 0.489 0.3 0.7l-6.965 14.163c-0.089 0.181-0.13 0.382-0.12 0.583s0.071 0.397 0.178 0.568c0.107 0.171 0.255 0.312 0.431 0.41s0.374 0.15 0.576 0.15c0.222-0.001 0.439-0.064 0.627-0.181s0.34-0.285 0.438-0.483l5.245-10.667v10.144c0 0.315 0.125 0.617 0.348 0.84s0.525 0.348 0.84 0.348c0.315 0 0.617-0.125 0.84-0.348s0.348-0.525 0.348-0.84v-10.144l5.245 10.667c0.099 0.199 0.25 0.366 0.439 0.484s0.406 0.18 0.628 0.181c0.181 0.001 0.36-0.041 0.522-0.122 0.14-0.069 0.265-0.164 0.368-0.281s0.182-0.253 0.233-0.401c0.050-0.148 0.071-0.304 0.061-0.459s-0.051-0.308-0.119-0.448l-6.965-14.165c0.16-0.232 0.267-0.497 0.314-0.775s0.030-0.563-0.046-0.835l8.12-1.969 0.234 0.965c0.027 0.113 0.098 0.21 0.197 0.27s0.218 0.079 0.331 0.052l2.45-0.593c0.056-0.014 0.109-0.038 0.155-0.072s0.086-0.077 0.116-0.126 0.050-0.104 0.059-0.16c0.009-0.057 0.006-0.115-0.007-0.171l-0.319-1.319c0.789-0.613 1.331-1.49 1.527-2.47s0.032-1.998-0.46-2.867zM2.511 13.552l-0.357-1.472 2.619-0.634 0.356 1.472-2.619 0.634zM6.314 14.090l-0.228-0.942c0-0.003 0-0.007-0.002-0.010s-0.003-0.007-0.003-0.010l-0.558-2.302c0-0.003 0-0.006 0-0.009s-0.002-0.006-0.003-0.009l-0.229-0.946 2.527-0.611 1.025 4.229-2.529 0.611zM16.89 13.264c0.133 0.203 0.193 0.446 0.168 0.688s-0.132 0.468-0.304 0.639l-0.002 0.003c-0.099 0.099-0.216 0.177-0.344 0.23s-0.267 0.081-0.406 0.081-0.278-0.028-0.406-0.081c-0.129-0.053-0.246-0.132-0.344-0.23l-0.002-0.003c-0.105-0.105-0.187-0.231-0.24-0.37s-0.077-0.287-0.069-0.436c0.008-0.149 0.047-0.294 0.114-0.426s0.162-0.249 0.278-0.343c0.116-0.094 0.25-0.162 0.393-0.2s0.294-0.046 0.441-0.023c0.147 0.023 0.287 0.077 0.412 0.158s0.231 0.187 0.312 0.312l0 0.001zM8.784 29.762c-0.027 0.055-0.070 0.101-0.124 0.132s-0.115 0.045-0.176 0.041c-0.062-0.004-0.12-0.026-0.169-0.063s-0.086-0.088-0.106-0.147c-0.013-0.039-0.019-0.080-0.016-0.12s0.013-0.081 0.032-0.117l6.59-13.403v1.414l-6.030 12.264zM16.002 29.937c-0.083-0-0.162-0.033-0.221-0.092s-0.092-0.138-0.092-0.221v-13.871c0.207 0.037 0.418 0.037 0.625 0v13.871c-0 0.083-0.033 0.162-0.092 0.221s-0.138 0.092-0.221 0.092v-0zM23.794 29.725c-0.013 0.039-0.035 0.076-0.062 0.107s-0.061 0.056-0.099 0.074c-0.074 0.034-0.159 0.037-0.236 0.011s-0.141-0.082-0.178-0.155l-6.030-12.263v-1.414l6.59 13.404c0.018 0.036 0.029 0.076 0.031 0.117s-0.003 0.081-0.016 0.12v0zM16.002 11.906c-0.424 0.001-0.836 0.14-1.173 0.398s-0.58 0.618-0.693 1.027l-4.185 1.013-1.386-5.725v-0.004l-0.156-0.645 15.831-3.834 1.543 6.372-8.356 2.026c-0.181-0.198-0.401-0.356-0.646-0.464s-0.51-0.164-0.778-0.164zM26.969 11.693l-1.98-8.175c0-0.005 0-0.009-0.002-0.014s-0.003-0.008-0.004-0.013l-0.231-0.95 1.6-0.388 2.217 9.152-1.6 0.387zM27.651 3.804c0.537 0.17 1.022 0.475 1.407 0.887s0.657 0.916 0.789 1.464c0.133 0.548 0.122 1.121-0.032 1.663s-0.445 1.036-0.845 1.433l-1.319-5.447z"></path>
<path d="M19.259 5.985l-3.36 0.815c-0.057 0.012-0.112 0.036-0.16 0.069s-0.089 0.076-0.12 0.126c-0.031 0.050-0.052 0.105-0.062 0.163s-0.007 0.117 0.007 0.174c0.014 0.057 0.039 0.11 0.074 0.158s0.079 0.087 0.129 0.116c0.050 0.030 0.106 0.049 0.164 0.057s0.117 0.004 0.173-0.012l3.361-0.814c0.057-0.012 0.111-0.036 0.159-0.069s0.089-0.076 0.12-0.126c0.031-0.050 0.052-0.105 0.061-0.162s0.007-0.117-0.007-0.174c-0.014-0.057-0.039-0.11-0.074-0.157s-0.079-0.087-0.129-0.116-0.106-0.049-0.164-0.057c-0.058-0.008-0.117-0.004-0.173 0.011v-0z"></path>
<path d="M22.513 5.647c-0.013-0.056-0.038-0.109-0.072-0.155s-0.076-0.086-0.126-0.116c-0.049-0.030-0.104-0.050-0.16-0.059s-0.115-0.006-0.171 0.007l-1 0.242c-0.057 0.012-0.112 0.036-0.16 0.069s-0.089 0.076-0.12 0.126c-0.031 0.050-0.052 0.105-0.062 0.163s-0.007 0.117 0.007 0.174c0.014 0.057 0.039 0.11 0.074 0.157s0.079 0.087 0.129 0.116c0.050 0.030 0.106 0.049 0.164 0.057s0.117 0.004 0.174-0.012l0.999-0.242c0.056-0.013 0.109-0.038 0.155-0.071s0.086-0.076 0.116-0.125c0.030-0.049 0.050-0.103 0.059-0.16s0.007-0.115-0.007-0.171z"></path>
</symbol>
<symbol id="icon-user" viewBox="0 0 32 32">
<path d="M19.357 13.313c2.019 0.651 3.845 1.893 5.321 3.647 2.285 2.716 3.536 6.461 3.536 10.54 0 0.123-0.032 0.244-0.093 0.351s-0.148 0.197-0.254 0.26v0c-0.221 0.132-5.246 3.102-11.867 3.102-6.114 0-11.607-2.959-11.842-3.087l15.199-14.813zM19.357 13.313c1.158-0.669 2.094-1.67 2.681-2.88 0.666-1.37 0.846-2.926 0.51-4.412s-1.167-2.814-2.357-3.765c-1.19-0.951-2.668-1.47-4.192-1.47s-3.002 0.518-4.192 1.47c-1.19 0.951-2.021 2.279-2.357 3.765s-0.156 3.042 0.51 4.412c0.588 1.21 1.523 2.211 2.681 2.88h6.714zM10.713 7.5c0-1.045 0.31-2.068 0.891-2.937s1.407-1.547 2.373-1.947c0.966-0.4 2.029-0.505 3.055-0.301s1.968 0.708 2.707 1.447c0.739 0.739 1.243 1.681 1.447 2.707s0.099 2.088-0.301 3.055-1.078 1.792-1.947 2.373c-0.869 0.581-1.891 0.891-2.937 0.891-1.402-0.002-2.745-0.559-3.737-1.55s-1.549-2.335-1.55-3.737zM8.414 17.878c1.993-2.368 4.686-3.665 7.586-3.665s5.593 1.297 7.586 3.665c1.982 2.356 3.114 5.608 3.196 9.203-1.233 0.652-5.53 2.705-10.782 2.705-4.858 0-9.453-2.068-10.781-2.721 0.085-3.589 1.217-6.835 3.196-9.187z"></path>
</symbol>
<symbol id="icon-viber" viewBox="0 0 32 32">
<path d="M1.369 30.679l5.986-1.57 0.577 0.343c2.428 1.441 5.212 2.203 8.050 2.204h0.006c8.717 0 15.812-7.095 15.815-15.816 0.002-4.226-1.642-8.199-4.628-11.189s-6.957-4.637-11.181-4.638c-8.724 0-15.819 7.094-15.822 15.814-0.001 2.988 0.835 5.899 2.418 8.417l0.376 0.598-1.598 5.836zM24.923 19.939c0.332 0.16 0.556 0.268 0.651 0.428 0.119 0.198 0.119 1.15-0.277 2.261s-2.296 2.124-3.209 2.26c-0.819 0.123-1.856 0.174-2.995-0.188-0.691-0.219-1.576-0.512-2.71-1.002-4.457-1.925-7.47-6.245-8.039-7.061-0.040-0.057-0.068-0.097-0.083-0.118l-0.004-0.005c-0.252-0.336-1.938-2.585-1.938-4.913 0-2.19 1.076-3.338 1.571-3.866 0.034-0.036 0.065-0.069 0.093-0.1 0.436-0.476 0.951-0.595 1.268-0.595s0.634 0.003 0.911 0.017c0.034 0.002 0.070 0.001 0.107 0.001 0.277-0.002 0.622-0.004 0.963 0.815 0.131 0.315 0.323 0.782 0.525 1.274 0.409 0.996 0.861 2.097 0.941 2.256 0.119 0.238 0.198 0.516 0.040 0.833-0.024 0.048-0.046 0.092-0.067 0.135-0.119 0.243-0.207 0.422-0.409 0.658-0.079 0.093-0.162 0.193-0.244 0.293-0.164 0.199-0.327 0.398-0.469 0.54-0.238 0.237-0.486 0.494-0.209 0.97s1.232 2.033 2.645 3.294c1.519 1.355 2.84 1.928 3.509 2.218 0.131 0.057 0.237 0.102 0.314 0.141 0.475 0.238 0.753 0.198 1.030-0.119s1.189-1.388 1.506-1.864c0.317-0.476 0.634-0.397 1.070-0.238s2.773 1.309 3.249 1.547c0.093 0.047 0.18 0.088 0.26 0.127z"></path>
</symbol>
<symbol id="icon-wholesale" viewBox="0 0 32 32">
<path d="M31.065 8.059l-13.749-7.717c-0.811-0.456-1.802-0.456-2.613 0l-13.749 7.717c-0.566 0.316-0.886 0.943-0.809 1.587s0.536 1.178 1.161 1.352c0.143 0.038 0.29 0.058 0.437 0.059 0.273 0.001 0.542-0.071 0.779-0.208l13.488-7.568 13.488 7.568c0.37 0.209 0.807 0.263 1.216 0.149 0.625-0.174 1.083-0.707 1.16-1.352s-0.242-1.271-0.809-1.587zM30.745 9.718c-0.144 0.256-0.469 0.347-0.725 0.203l-13.477-7.573c-0.33-0.191-0.737-0.191-1.067 0l-13.477 7.573c-0.258 0.147-0.586 0.058-0.733-0.2s-0.058-0.586 0.2-0.733l13.76-7.717c0.487-0.274 1.081-0.274 1.568 0l13.749 7.717c0.125 0.069 0.216 0.186 0.254 0.323s0.020 0.284-0.051 0.408z"></path>
<path d="M3.21 11.984c-0.295 0-0.533 0.239-0.533 0.533v18.949c0 0.295 0.239 0.533 0.533 0.533s0.533-0.239 0.533-0.533v-18.949c0-0.294-0.239-0.533-0.533-0.533z"></path>
<path d="M28.809 11.984c-0.295 0-0.533 0.239-0.533 0.533v18.949c0 0.295 0.239 0.533 0.533 0.533s0.533-0.239 0.533-0.533v-18.949c0-0.294-0.239-0.533-0.533-0.533z"></path>
<path d="M26.676 11.201h-21.333c-0.295 0-0.533 0.239-0.533 0.533v19.733c0 0.294 0.239 0.533 0.533 0.533s0.533-0.239 0.533-0.533v-17.066h20.266v17.066c0 0.294 0.239 0.533 0.533 0.533s0.533-0.239 0.533-0.533v-19.733c0-0.295-0.239-0.533-0.533-0.533zM5.877 13.334v-1.067h20.266v1.067h-20.266z"></path>
<path d="M20.276 8.001c0.295 0 0.533-0.239 0.533-0.533s-0.239-0.533-0.533-0.533h-8.533c-0.295 0-0.533 0.239-0.533 0.533v2.133c0 0.295 0.239 0.533 0.533 0.533h8.533c0.295 0 0.533-0.239 0.533-0.533s-0.239-0.533-0.533-0.533h-8v-1.067h8z"></path>
<path d="M24.543 28.8h-0.533v-5.867c0-0.295-0.239-0.533-0.533-0.533h-1.6v-5.867c0-0.295-0.239-0.533-0.533-0.533h-7.467c-0.295 0-0.533 0.239-0.533 0.533v2.667h-2.667c-0.295 0-0.533 0.239-0.533 0.533v2.667h-1.6c-0.295 0-0.533 0.239-0.533 0.533v5.867h-0.533c-0.294 0-0.533 0.239-0.533 0.533v2.133c0 0.294 0.239 0.533 0.533 0.533s0.533-0.239 0.533-0.533v-1.6h1.6v1.6c0 0.294 0.239 0.533 0.533 0.533s0.533-0.239 0.533-0.533v-1.6h1.067v1.6c0 0.294 0.239 0.533 0.533 0.533s0.533-0.239 0.533-0.533v-1.6h1.6v1.6c0 0.294 0.239 0.533 0.533 0.533s0.533-0.239 0.533-0.533v-1.6h1.067v1.6c0 0.294 0.239 0.533 0.533 0.533s0.533-0.239 0.533-0.533v-1.6h1.6v1.6c0 0.294 0.239 0.533 0.533 0.533s0.533-0.239 0.533-0.533v-1.6h1.067v1.6c0 0.294 0.239 0.533 0.533 0.533s0.533-0.239 0.533-0.533v-1.6h1.6v1.6c0 0.294 0.239 0.533 0.533 0.533s0.533-0.239 0.533-0.533v-2.133c0-0.295-0.239-0.533-0.533-0.533zM19.21 23.467h1.067v1.067h-1.067v-1.067zM18.143 17.067v1.067h-1.067v-1.067h1.067zM14.41 17.067h1.6v1.6c0 0.295 0.239 0.533 0.533 0.533h2.133c0.294 0 0.533-0.239 0.533-0.533v-1.6h1.6v5.333h-6.4v-5.333zM11.743 23.467h1.067v1.067h-1.067v-1.067zM11.21 20.267h2.133v2.133h-2.133v-2.133zM9.076 28.8v-5.333h1.6v1.6c0 0.295 0.239 0.533 0.533 0.533h2.133c0.295 0 0.533-0.239 0.533-0.533v-1.6h1.6v5.333h-6.4zM16.543 28.8v-5.333h1.6v1.6c0 0.295 0.239 0.533 0.533 0.533h2.133c0.295 0 0.533-0.239 0.533-0.533v-1.6h1.6v5.333h-6.4z"></path>
</symbol>
<symbol id="icon-winner" viewBox="0 0 32 32">
<path d="M18.939 3.849c-0.336-0.081-0.673 0.126-0.754 0.461s0.126 0.673 0.461 0.754c5.066 1.221 8.604 5.718 8.604 10.936 0 6.203-5.047 11.25-11.25 11.25s-11.25-5.047-11.25-11.25c0-5.218 3.538-9.715 8.603-10.936 0.336-0.081 0.542-0.419 0.461-0.754s-0.419-0.542-0.754-0.461c-2.68 0.646-5.108 2.195-6.837 4.362-1.782 2.233-2.723 4.926-2.723 7.789 0 6.892 5.607 12.5 12.5 12.5s12.5-5.607 12.5-12.5c0-2.863-0.942-5.556-2.724-7.789-1.729-2.167-4.157-3.716-6.837-4.362z"></path>
<path d="M31.623 14.497l-0.731-1.364 0.122-1.687c0.117-1.081-0.314-2.136-1.155-2.824l-1.214-0.994-0.477-1.438c-0.267-1.1-1.103-1.984-2.186-2.311l-1.498-0.453-1.147-1.326c-0.679-0.799-1.706-1.214-2.749-1.111l-1.555 0.155-1.529-0.767c-0.942-0.502-2.065-0.503-3.007-0l-1.364 0.731-1.686-0.122c-1.081-0.117-2.136 0.314-2.824 1.155l-0.994 1.214-1.438 0.477c-1.1 0.267-1.984 1.103-2.311 2.186l-0.453 1.498-1.326 1.147c-0.798 0.679-1.214 1.706-1.112 2.749l0.155 1.555-0.767 1.529c-0.502 0.942-0.503 2.065-0 3.007l0.731 1.364-0.122 1.687c-0.117 1.081 0.314 2.136 1.155 2.824l1.214 0.994 0.477 1.438c0.267 1.1 1.103 1.984 2.186 2.311l1.498 0.453 1.147 1.326c0.679 0.799 1.706 1.214 2.749 1.112l1.555-0.155 1.528 0.767c0.471 0.251 0.988 0.377 1.504 0.377s1.032-0.126 1.503-0.377l1.364-0.731 1.686 0.122c1.081 0.117 2.136-0.314 2.824-1.155l0.994-1.214 1.438-0.477c1.1-0.267 1.983-1.103 2.311-2.186l0.453-1.498 1.326-1.147c0.798-0.679 1.214-1.706 1.112-2.749l-0.155-1.555 0.767-1.529c0.502-0.942 0.503-2.065 0-3.007zM30.517 16.921c-0.003 0.005-0.005 0.010-0.008 0.015l-0.852 1.698c-0.053 0.106-0.075 0.224-0.063 0.342l0.173 1.734c0.062 0.634-0.191 1.26-0.681 1.677l-1.467 1.269c-0.089 0.077-0.155 0.179-0.189 0.292l-0.505 1.672c-0.201 0.666-0.748 1.179-1.427 1.337-0.019 0.004-0.037 0.009-0.055 0.015l-1.636 0.543c-0.112 0.037-0.212 0.106-0.287 0.197l-1.109 1.354c-0.421 0.515-1.068 0.778-1.73 0.703-0.008-0.001-0.017-0.002-0.025-0.002l-1.879-0.136c-0.118-0.009-0.236 0.017-0.34 0.072l-1.523 0.816c-0.574 0.306-1.26 0.305-1.835-0.004-0.005-0.003-0.010-0.005-0.015-0.008l-1.698-0.852c-0.087-0.044-0.183-0.066-0.28-0.066-0.021 0-0.041 0.001-0.062 0.003l-1.734 0.173c-0.634 0.063-1.26-0.191-1.677-0.681l-1.269-1.467c-0.077-0.090-0.179-0.155-0.292-0.189l-1.672-0.505c-0.667-0.201-1.179-0.748-1.337-1.427-0.004-0.019-0.010-0.037-0.016-0.055l-0.543-1.636c-0.037-0.112-0.106-0.212-0.197-0.287l-1.354-1.109c-0.515-0.421-0.778-1.068-0.703-1.73 0.001-0.008 0.002-0.017 0.002-0.025l0.136-1.879c0.009-0.118-0.017-0.236-0.072-0.34l-0.816-1.523c-0.306-0.574-0.305-1.26 0.004-1.835 0.003-0.005 0.005-0.010 0.008-0.015l0.852-1.698c0.053-0.106 0.075-0.224 0.063-0.342l-0.173-1.734c-0.062-0.634 0.191-1.26 0.681-1.677l1.467-1.27c0.090-0.077 0.155-0.179 0.189-0.292l0.505-1.672c0.201-0.667 0.748-1.179 1.427-1.337 0.019-0.004 0.037-0.010 0.055-0.016l1.636-0.543c0.112-0.037 0.212-0.106 0.287-0.197l1.109-1.354c0.421-0.515 1.068-0.777 1.73-0.703 0.008 0.001 0.016 0.002 0.025 0.002l1.879 0.136c0.118 0.008 0.236-0.017 0.34-0.072l1.523-0.816c0.574-0.306 1.26-0.305 1.835 0.004 0.005 0.003 0.010 0.005 0.015 0.008l1.698 0.852c0.106 0.053 0.224 0.075 0.342 0.063l1.734-0.173c0.634-0.063 1.26 0.191 1.677 0.681l1.269 1.467c0.077 0.090 0.179 0.155 0.292 0.189l1.672 0.505c0.666 0.201 1.179 0.748 1.337 1.427 0.004 0.019 0.010 0.037 0.016 0.055l0.543 1.636c0.037 0.112 0.106 0.212 0.197 0.287l1.354 1.109c0.515 0.421 0.778 1.068 0.703 1.73-0.001 0.008-0.002 0.017-0.002 0.025l-0.136 1.879c-0.009 0.118 0.017 0.236 0.072 0.34l0.816 1.523c0.306 0.574 0.305 1.26-0.004 1.835z"></path>
<path d="M13.288 12.595c-0.1-0.211-0.315-0.358-0.564-0.358h-3.302c-0.345 0-0.625 0.28-0.625 0.625v9.46c0 0.345 0.28 0.625 0.625 0.625h3.302c0.259 0 0.481-0.158 0.576-0.382 0.476 0.067 0.967 0.202 1.478 0.344 0.768 0.213 1.563 0.433 2.388 0.433h3.608c1.115 0 2.019-0.591 2.418-1.582 0.194-0.483 0.228-0.983 0.115-1.403 0.207-0.187 0.383-0.419 0.515-0.69 0.269-0.549 0.323-1.167 0.17-1.688 0.284-0.274 0.496-0.637 0.607-1.064 0.104-0.399 0.102-0.793 0.010-1.135 0.564-0.332 0.943-0.934 0.943-1.613 0-0.532-0.207-1.023-0.584-1.381-0.361-0.344-0.843-0.534-1.356-0.534l-5.086 0c-0.386-0.485-0.507-1.142-0.287-1.672 0.451-1.087 0.423-2.006-0.091-2.982-0.382-0.724-1.408-1.445-2.27-1.322-0.521 0.074-0.899 0.443-1.009 0.986-0.033 0.16-0.042 0.332-0.052 0.532-0.026 0.493-0.061 1.168-0.486 1.983-0.288 0.552-0.385 1.121-0.469 1.622-0.122 0.718-0.181 1.064-0.575 1.197zM10.046 13.487h2.052v8.21h-2.052v-8.21zM15.095 11.607c0.073-0.43 0.148-0.875 0.345-1.252 0.551-1.056 0.598-1.958 0.626-2.496 0.007-0.143 0.014-0.279 0.028-0.347 0-0 0-0.001 0-0.001 0.217 0.003 0.75 0.296 0.948 0.671 0.342 0.65 0.354 1.17 0.042 1.92-0.281 0.676-0.26 1.461 0.018 2.158-0.304 0.042-0.538 0.303-0.538 0.618 0 0.345 0.28 0.625 0.625 0.625l6.422-0c0.19 0 0.366 0.067 0.494 0.189 0.089 0.085 0.196 0.237 0.196 0.476 0 0.335-0.307 0.625-0.671 0.633l-1.609 0.035c-0.345 0.008-0.619 0.293-0.611 0.638 0.007 0.34 0.286 0.611 0.625 0.611 0.005 0 0.009 0 0.014-0l1.34-0.029c0.044 0.124 0.066 0.36-0.026 0.631-0.078 0.23-0.288 0.616-0.817 0.616-0.345 0-0.625 0.28-0.625 0.625s0.28 0.625 0.625 0.625c0.095 0 0.188-0.006 0.279-0.017 0.008 0.177-0.029 0.384-0.126 0.582-0.115 0.234-0.342 0.514-0.77 0.514-0.345 0-0.625 0.28-0.625 0.625s0.28 0.625 0.625 0.625c0.065 0 0.129-0.003 0.192-0.009-0.002 0.12-0.026 0.27-0.094 0.434-0.098 0.236-0.416 0.784-1.252 0.784h-3.608c-0.655 0-1.335-0.188-2.054-0.387-0.572-0.159-1.159-0.321-1.763-0.393v-7.451c1.407-0.255 1.601-1.394 1.746-2.253z"></path>
<path d="M16 4.75c0.345 0 0.625-0.28 0.625-0.625s-0.28-0.625-0.625-0.625h-0c-0.345 0-0.625 0.28-0.625 0.625s0.28 0.625 0.625 0.625z"></path>
</symbol>
<symbol id="icon-circle-right" viewBox="0 0 32 32">
<path d="M16 0c-8.837 0-16 7.163-16 16s7.163 16 16 16 16-7.163 16-16-7.163-16-16-16zM16 29c-7.18 0-13-5.82-13-13s5.82-13 13-13 13 5.82 13 13-5.82 13-13 13z"></path>
<path d="M11.086 22.086l2.829 2.829 8.914-8.914-8.914-8.914-2.828 2.828 6.086 6.086z"></path>
</symbol>
<symbol id="icon-circle-left" viewBox="0 0 32 32">
<path d="M16 32c8.837 0 16-7.163 16-16s-7.163-16-16-16-16 7.163-16 16 7.163 16 16 16zM16 3c7.18 0 13 5.82 13 13s-5.82 13-13 13-13-5.82-13-13 5.82-13 13-13z"></path>
<path d="M20.914 9.914l-2.829-2.829-8.914 8.914 8.914 8.914 2.828-2.828-6.086-6.086z"></path>
</symbol>
<symbol id="icon-arrow-down" viewBox="0 0 24 24">
        <path d="M7 10l5 5 5-5z"></path>
    </symbol>
<symbol id="icon-facebook1" viewBox="0 0 32 32">
<path d="M19 6h5v-6h-5c-3.86 0-7 3.14-7 7v3h-4v6h4v16h6v-16h5l1-6h-6v-3c0-0.542 0.458-1 1-1z"></path>
</symbol>
<symbol id="icon-instagram" viewBox="0 0 32 32">
<path d="M16 2.881c4.275 0 4.781 0.019 6.462 0.094 1.563 0.069 2.406 0.331 2.969 0.55 0.744 0.288 1.281 0.638 1.837 1.194 0.563 0.563 0.906 1.094 1.2 1.838 0.219 0.563 0.481 1.412 0.55 2.969 0.075 1.688 0.094 2.194 0.094 6.463s-0.019 4.781-0.094 6.463c-0.069 1.563-0.331 2.406-0.55 2.969-0.288 0.744-0.637 1.281-1.194 1.837-0.563 0.563-1.094 0.906-1.837 1.2-0.563 0.219-1.413 0.481-2.969 0.55-1.688 0.075-2.194 0.094-6.463 0.094s-4.781-0.019-6.463-0.094c-1.563-0.069-2.406-0.331-2.969-0.55-0.744-0.288-1.281-0.637-1.838-1.194-0.563-0.563-0.906-1.094-1.2-1.837-0.219-0.563-0.481-1.413-0.55-2.969-0.075-1.688-0.094-2.194-0.094-6.463s0.019-4.781 0.094-6.463c0.069-1.563 0.331-2.406 0.55-2.969 0.288-0.744 0.638-1.281 1.194-1.838 0.563-0.563 1.094-0.906 1.838-1.2 0.563-0.219 1.412-0.481 2.969-0.55 1.681-0.075 2.188-0.094 6.463-0.094zM16 0c-4.344 0-4.887 0.019-6.594 0.094-1.7 0.075-2.869 0.35-3.881 0.744-1.056 0.412-1.95 0.956-2.837 1.85-0.894 0.888-1.438 1.781-1.85 2.831-0.394 1.019-0.669 2.181-0.744 3.881-0.075 1.713-0.094 2.256-0.094 6.6s0.019 4.887 0.094 6.594c0.075 1.7 0.35 2.869 0.744 3.881 0.413 1.056 0.956 1.95 1.85 2.837 0.887 0.887 1.781 1.438 2.831 1.844 1.019 0.394 2.181 0.669 3.881 0.744 1.706 0.075 2.25 0.094 6.594 0.094s4.888-0.019 6.594-0.094c1.7-0.075 2.869-0.35 3.881-0.744 1.050-0.406 1.944-0.956 2.831-1.844s1.438-1.781 1.844-2.831c0.394-1.019 0.669-2.181 0.744-3.881 0.075-1.706 0.094-2.25 0.094-6.594s-0.019-4.887-0.094-6.594c-0.075-1.7-0.35-2.869-0.744-3.881-0.394-1.063-0.938-1.956-1.831-2.844-0.887-0.887-1.781-1.438-2.831-1.844-1.019-0.394-2.181-0.669-3.881-0.744-1.712-0.081-2.256-0.1-6.6-0.1v0z"></path>
<path d="M16 7.781c-4.537 0-8.219 3.681-8.219 8.219s3.681 8.219 8.219 8.219 8.219-3.681 8.219-8.219c0-4.537-3.681-8.219-8.219-8.219zM16 21.331c-2.944 0-5.331-2.387-5.331-5.331s2.387-5.331 5.331-5.331c2.944 0 5.331 2.387 5.331 5.331s-2.387 5.331-5.331 5.331z"></path>
<path d="M26.462 7.456c0 1.060-0.859 1.919-1.919 1.919s-1.919-0.859-1.919-1.919c0-1.060 0.859-1.919 1.919-1.919s1.919 0.859 1.919 1.919z"></path>
</symbol>
<symbol id="icon-twitter1" viewBox="0 0 32 32">
<path d="M32 7.075c-1.175 0.525-2.444 0.875-3.769 1.031 1.356-0.813 2.394-2.1 2.887-3.631-1.269 0.75-2.675 1.3-4.169 1.594-1.2-1.275-2.906-2.069-4.794-2.069-3.625 0-6.563 2.938-6.563 6.563 0 0.512 0.056 1.012 0.169 1.494-5.456-0.275-10.294-2.888-13.531-6.862-0.563 0.969-0.887 2.1-0.887 3.3 0 2.275 1.156 4.287 2.919 5.463-1.075-0.031-2.087-0.331-2.975-0.819 0 0.025 0 0.056 0 0.081 0 3.181 2.263 5.838 5.269 6.437-0.55 0.15-1.131 0.231-1.731 0.231-0.425 0-0.831-0.044-1.237-0.119 0.838 2.606 3.263 4.506 6.131 4.563-2.25 1.762-5.075 2.813-8.156 2.813-0.531 0-1.050-0.031-1.569-0.094 2.913 1.869 6.362 2.95 10.069 2.95 12.075 0 18.681-10.006 18.681-18.681 0-0.287-0.006-0.569-0.019-0.85 1.281-0.919 2.394-2.075 3.275-3.394z"></path>
</symbol>
</defs>
</svg>
